HIERARCHY
ROOT Hips
{
 OFFSET 0.000000 0.000000 0.000000
 CHANNELS 6 Xposition Yposition Zposition Yrotation Xrotation Zrotation
 JOINT Chest
 {
  OFFSET 0.000000 10.472665 -1.163630
  CHANNELS 3 Yrotation Xrotation Zrotation
  JOINT Chest2
  {
   OFFSET 0.000000 9.539204 0.000000
   CHANNELS 3 Yrotation Xrotation Zrotation
   JOINT Chest3
   {
    OFFSET 0.000000 8.712031 0.000000
    CHANNELS 3 Yrotation Xrotation Zrotation
    JOINT Chest4
    {
     OFFSET 0.000000 8.702295 0.000000
     CHANNELS 3 Yrotation Xrotation Zrotation
     JOINT Neck
     {
      OFFSET 0.000000 12.050423 0.000000
      CHANNELS 3 Yrotation Xrotation Zrotation
      JOINT Head
      {
       OFFSET 0.000000 8.529202 0.000000
       CHANNELS 3 Yrotation Xrotation Zrotation
       End Site
       {
        OFFSET 0.000000 16.162796 0.000000
       }
      }
     }
     JOINT RightCollar
     {
      OFFSET -2.621557 6.754878 0.000000
      CHANNELS 3 Yrotation Xrotation Zrotation
      JOINT RightShoulder
      {
       OFFSET -12.689737 0.000000 0.000000
       CHANNELS 3 Yrotation Xrotation Zrotation
       JOINT RightElbow
       {
        OFFSET -25.126415 0.000000 0.000000
        CHANNELS 3 Yrotation Xrotation Zrotation
        JOINT RightWrist
        {
         OFFSET -22.454540 0.000000 0.000000
         CHANNELS 3 Yrotation Xrotation Zrotation
         End Site
         {
          OFFSET -16.640741 0.000000 0.000000
         }
        }
       }
      }
     }
     JOINT LeftCollar
     {
      OFFSET 2.621557 6.754878 0.000000
      CHANNELS 3 Yrotation Xrotation Zrotation
      JOINT LeftShoulder
      {
       OFFSET 12.689737 0.000000 0.000000
       CHANNELS 3 Yrotation Xrotation Zrotation
       JOINT LeftElbow
       {
        OFFSET 25.126415 0.000000 0.000000
        CHANNELS 3 Yrotation Xrotation Zrotation
        JOINT LeftWrist
        {
         OFFSET 22.454540 0.000000 0.000000
         CHANNELS 3 Yrotation Xrotation Zrotation
         End Site
         {
          OFFSET 16.640741 0.000000 0.000000
         }
        }
       }
      }
     }
    }
   }
  }
 }
 JOINT RightHip
 {
  OFFSET -8.610511 0.000000 0.000000
  CHANNELS 3 Yrotation Xrotation Zrotation
  JOINT RightKnee
  {
   OFFSET 0.000000 -41.563098 0.000000
   CHANNELS 3 Yrotation Xrotation Zrotation
   JOINT RightAnkle
   {
    OFFSET 0.000000 -36.995114 0.000000
    CHANNELS 3 Yrotation Xrotation Zrotation
    JOINT RightToe
    {
     OFFSET 0.000000 -7.019261 15.874328
     CHANNELS 3 Yrotation Xrotation Zrotation
     End Site
     {
      OFFSET 0.000000 -1.357051 5.790084
     }
    }
   }
  }
 }
 JOINT LeftHip
 {
  OFFSET 8.610511 0.000000 0.000000
  CHANNELS 3 Yrotation Xrotation Zrotation
  JOINT LeftKnee
  {
   OFFSET 0.000000 -41.563098 0.000000
   CHANNELS 3 Yrotation Xrotation Zrotation
   JOINT LeftAnkle
   {
    OFFSET 0.000000 -36.995114 0.000000
    CHANNELS 3 Yrotation Xrotation Zrotation
    JOINT LeftToe
    {
     OFFSET 0.000000 -7.019261 15.874328
     CHANNELS 3 Yrotation Xrotation Zrotation
     End Site
     {
      OFFSET 0.000000 -1.357051 5.790084
     }
    }
   }
  }
 }
}
MOTION
Frames: 13
Frame Time: 0.016667
33.574958 84.768266 485.930606 3.147352 -0.441196 -3.967422 -1.693334 1.153625 1.783559 -0.838223 -5.319567 0.800274 -0.834719 0.500246 0.715182 -0.571739 6.210636 0.540169 0.808964 12.305341 -0.049778 1.563852 -13.171281 -0.435184 3.161672 1.306762 8.349059 -4.996537 -5.844809 77.974053 -1.551941 -8.165034 -0.166776 -7.028197 -1.049990 -0.353123 -4.475405 2.317770 -8.755596 0.624590 -13.601179 -78.777209 0.534640 -15.964603 2.225047 5.743070 1.831518 0.215241 3.733671 -15.706600 9.111534 0.614822 18.480252 1.996975 -13.038459 -4.073895 0.020346 0.000000 -0.000000 0.000000 5.984908 -4.815633 5.161975 8.317664 61.009925 4.018301 -9.458507 12.274784 -5.647119 2.756823 -16.886227 7.562610
33.684142 85.231470 488.105012 3.536647 -0.310468 -4.048254 -1.563007 1.243704 1.954907 -0.788875 -5.279483 0.876678 -0.785663 0.540405 0.796603 -0.528833 6.240649 0.601647 0.642062 12.383883 -0.081212 1.257918 -13.026816 -0.423984 3.430573 1.218788 8.130971 -3.564154 -7.112487 77.213328 -0.110185 -8.917841 0.980390 -6.440865 -1.247667 -0.917726 -4.633549 2.189241 -8.907256 0.675637 -13.228496 -79.205502 1.835955 -14.133193 3.166071 8.033061 2.108407 -0.015987 2.520047 -13.534325 9.374008 0.720018 17.469121 1.885690 -12.045485 -4.845680 0.321423 0.000000 0.000000 0.000000 5.031821 -7.884182 4.908655 9.596961 62.314918 5.605916 -10.489786 10.358051 -5.361369 2.790766 -16.049363 8.229215
33.862599 85.687967 490.155660 3.791423 -0.199301 -3.987786 -1.342364 1.390110 2.100277 -0.698418 -5.213803 0.941263 -0.695678 0.606201 0.870367 -0.455845 6.289964 0.657352 0.438664 12.439327 -0.146587 0.897148 -12.925037 -0.462803 3.730750 1.157663 7.813103 -2.464436 -8.621958 76.316541 1.442507 -9.572251 2.204687 -5.817000 -1.442229 -1.551202 -4.781772 1.995667 -9.102689 1.231977 -12.983879 -79.684194 2.798759 -11.526475 3.986525 10.373175 2.391947 -0.215433 1.196004 -11.476702 9.440674 0.563169 16.579596 1.642511 -10.554610 -5.420511 0.739309 0.000000 0.000000 0.000000 3.941421 -10.887630 4.327777 10.287480 62.735853 6.806708 -11.943507 7.895839 -5.129068 2.489571 -17.207775 9.719951
34.063008 86.105335 492.174550 3.785419 -0.027484 -3.744057 -1.014768 1.467794 2.114916 -0.553781 -5.177828 0.946896 -0.551648 0.642334 0.890676 -0.346330 6.317234 0.672603 0.239806 12.514031 -0.179109 0.531383 -12.787522 -0.441109 4.010119 1.154942 7.432394 -1.723869 -10.100930 75.655856 3.183243 -10.135538 3.285783 -5.306221 -1.584516 -2.161793 -4.887771 1.914731 -9.131431 2.054959 -12.633531 -80.145902 3.259066 -9.125317 4.518268 12.021322 2.722196 -0.507875 0.283052 -9.515487 9.277769 0.466625 15.545150 1.401897 -9.278023 -5.844393 1.053069 0.000000 0.000000 0.000000 2.842428 -13.793534 3.683304 9.541556 62.500109 6.240319 -11.840248 5.609659 -4.654665 1.927039 -17.888974 10.446794
34.278945 86.486181 494.170796 3.367604 0.272437 -3.238538 -0.524874 1.419661 1.926924 -0.326597 -5.196917 0.861425 -0.325348 0.623425 0.828270 -0.181313 6.303476 0.625271 0.056687 12.625386 -0.154334 0.171949 -12.581716 -0.317216 4.260394 1.268469 6.924881 -1.492806 -11.571704 75.522880 5.135829 -10.477481 4.086211 -4.988335 -1.657146 -2.703428 -4.926276 2.042048 -8.854314 3.201952 -12.086491 -80.652644 3.007878 -6.939532 4.642548 12.640295 3.151316 -0.963519 0.041451 -7.714034 8.824997 0.560516 14.265970 1.174084 -8.473487 -6.071725 1.210516 0.000000 0.000000 0.000000 1.791102 -16.705689 3.014375 6.618217 61.699253 2.817709 -8.760726 3.753388 -3.512195 1.250080 -17.706934 9.423605
34.516834 86.827899 496.135283 2.693241 0.641378 -2.554541 0.071069 1.310711 1.603139 -0.045548 -5.243115 0.715203 -0.045427 0.577319 0.710581 0.019742 6.269374 0.536167 -0.120615 12.756251 -0.096973 -0.189237 -12.339029 -0.134542 4.488358 1.441489 6.359793 -1.662587 -13.046142 75.677425 7.255552 -10.702388 4.800363 -4.778383 -1.695007 -3.203249 -4.918872 2.275444 -8.406882 4.604463 -11.417780 -81.126906 2.232988 -4.932953 4.382262 12.577367 3.562464 -1.470946 0.161616 -6.013540 8.166500 0.712160 12.844372 0.933040 -7.887367 -6.148354 1.285108 0.000000 0.000000 0.000000 0.746555 -19.547575 2.328526 2.966406 60.000638 -1.742109 -4.277055 2.089820 -1.874060 0.648320 -17.148701 7.432765
34.748619 87.090244 498.132670 2.092978 0.964556 -1.889223 0.622389 1.196783 1.247674 0.217018 -5.292495 0.555228 0.216043 0.527895 0.577259 0.205765 6.232644 0.435332 -0.282113 12.897354 -0.014999 -0.529607 -12.076486 0.087360 4.670208 1.523687 5.973287 -1.864732 -14.247535 75.706355 9.517620 -11.164203 5.666454 -4.575420 -1.738542 -3.675311 -4.906264 2.496835 -7.990827 5.843144 -10.676356 -81.289109 1.365687 -4.018870 3.747808 12.132099 3.729985 -1.840643 0.319909 -4.209157 7.503715 0.849910 11.326014 0.738089 -7.470195 -6.254910 1.261220 0.000000 -0.000000 0.000000 -0.353906 -21.994999 1.812982 0.926489 57.215296 -4.643868 -0.870360 0.716553 -0.503551 0.324347 -15.193393 5.387020
34.964305 87.265360 500.202087 1.680163 1.180106 -1.246667 1.084837 1.081055 0.845075 0.442118 -5.343778 0.374656 0.440171 0.476482 0.419537 0.361928 6.194262 0.316177 -0.425655 13.066274 0.108755 -0.851767 -11.761214 0.379889 4.790603 1.424924 5.908946 -1.949693 -14.966038 75.455251 11.989958 -12.104869 6.736747 -4.354936 -1.808762 -4.151645 -4.911661 2.704793 -7.632679 6.791700 -9.846956 -80.954664 0.490442 -4.796647 2.531538 11.251142 3.507425 -2.019072 0.396045 -2.131724 6.850752 1.023953 9.588618 0.616245 -7.266025 -6.416309 1.079327 -0.000310 0.095381 0.182952 -1.614811 -23.934061 1.489743 0.968549 53.385792 -5.144983 0.558379 -0.304346 0.032220 0.207971 -10.479442 3.444683
35.173887 87.361103 502.304403 1.338831 1.345645 -0.619405 1.504278 0.958780 0.413561 0.649258 -5.398852 0.181485 0.646372 0.421211 0.247394 0.503532 6.152828 0.186215 -0.552722 13.245495 0.256612 -1.150999 -11.425639 0.709898 4.866548 1.224805 6.018936 -2.047862 -15.406895 75.088131 14.594829 -13.320272 7.902187 -4.131841 -1.883982 -4.602235 -4.913890 2.902793 -7.306657 7.598950 -8.986133 -80.308639 -0.351695 -6.676179 0.917456 9.983489 3.066142 -2.117830 0.502950 0.054553 6.200920 1.184447 7.757104 0.531573 -7.233398 -6.607766 0.805234 0.001181 0.191741 0.365387 -2.962963 -25.467343 1.301682 1.961931 48.663803 -4.509160 1.089612 -0.996069 0.081356 0.107692 -4.385079 1.456709
35.379298 87.360802 504.386883 1.052029 1.515620 -0.183245 1.863385 0.866925 0.110157 0.823303 -5.440600 0.045681 0.819599 0.379234 0.129256 0.624477 6.121275 0.097041 -0.660302 13.373066 0.367634 -1.397824 -11.185743 0.961726 4.927258 1.026897 6.100882 -2.185851 -15.916024 74.648399 17.093494 -14.508788 9.150693 -3.866843 -1.941827 -4.951907 -4.892217 2.986298 -7.140040 8.263713 -8.262546 -79.641354 -0.863217 -8.769604 -0.450498 8.792571 2.646047 -2.165545 0.710893 2.054419 5.728553 1.112408 6.247913 0.469139 -7.194143 -6.934146 0.607279 0.000000 -0.000000 0.000000 -4.216144 -26.566299 1.275103 3.269958 43.249200 -3.479480 1.296406 -1.304108 0.068631 0.000000 0.000000 0.000000
35.589924 87.247218 506.411611 0.850476 1.682604 -0.005238 2.149525 0.842635 0.005297 0.955478 -5.451812 -0.001552 0.951167 0.367812 0.095439 0.720576 6.112684 0.071473 -0.755575 13.405698 0.409674 -1.594504 -11.122942 1.079047 4.963946 0.867553 6.071667 -2.389431 -16.661186 74.093244 19.416340 -15.636814 10.641138 -3.529768 -2.001306 -5.162372 -4.860810 2.886416 -7.224857 8.694924 -7.710915 -79.006052 -1.025912 -11.096135 -1.407683 7.783271 2.283407 -2.167602 1.151396 3.783201 5.498511 0.637821 5.182196 0.463298 -7.103946 -7.443155 0.542278 -0.010609 -0.661514 -1.466826 -5.308501 -27.179130 1.377228 5.067582 37.045583 -2.125823 1.143250 -1.069393 0.054222 -0.019705 1.114678 -0.432383
35.796380 87.037590 508.416502 0.701595 1.850269 -0.017817 2.374344 0.843346 0.029196 1.054313 -5.451372 0.008702 1.049558 0.368079 0.115724 0.795907 6.112934 0.086723 -0.832811 13.386881 0.413692 -1.742604 -11.156489 1.118057 4.987345 0.712544 6.015631 -2.627494 -17.477890 73.467620 21.607167 -16.766925 12.259605 -3.150910 -2.059261 -5.270959 -4.806818 2.677191 -7.472819 8.982114 -7.289292 -78.364504 -0.912423 -13.623511 -2.115073 6.845760 1.925210 -2.109405 1.743762 5.327834 5.466182 -0.067947 4.440048 0.502400 -7.006935 -8.085726 0.554633 -0.006848 -1.623817 -3.475555 -6.306061 -27.333723 1.593696 6.854662 30.120077 -0.718757 0.679742 -0.465548 -0.146187 0.001334 0.556966 -0.217548
35.972439 86.766966 510.462568 0.493569 2.089277 -0.196259 2.555450 0.784881 0.127510 1.130174 -5.476805 0.052586 1.125017 0.342501 0.167309 0.856432 6.093855 0.125636 -0.870363 13.384884 0.413312 -1.813565 -11.159527 1.132491 5.059072 0.562496 5.983335 -2.846874 -18.215295 72.943377 23.617170 -17.691125 13.635099 -2.789102 -2.069340 -5.312032 -4.669600 2.468252 -7.740848 9.382016 -7.039988 -77.871782 -0.527815 -15.378405 -2.382690 6.134007 1.640455 -1.916360 2.261203 6.648391 5.629867 -0.712617 4.073934 0.502537 -6.857049 -8.820600 0.640457 0.025264 -2.644376 -4.903637 -7.221895 -27.111846 1.979864 7.495284 22.960766 0.222801 0.491605 0.083854 -0.297725 0.000000 0.000000 0.000000
